<svg width="524" height="56" xmlns="http://www.w3.org/2000/svg" xmlns:xlink="http://www.w3.org/1999/xlink" overflow="hidden"><defs><clipPath id="clip0"><rect x="0" y="0" width="524" height="56"/></clipPath></defs><g clip-path="url(#clip0)"><path d="M149.34 44.7933C149.34 47.0657 146.994 48.9067 144.1 48.9067L11.3533 48.9067C8.45911 48.9067 6.11333 47.0639 6.11333 44.7933L6.11333 10.5167C6.11333 8.24427 8.45911 6.40328 11.3533 6.40328L144.1 6.40328C146.994 6.40328 149.34 8.24427 149.34 10.5167L149.34 44.7933Z" stroke="#000000" stroke-width="1.74667" stroke-miterlimit="10" fill="#FFFFFF" fill-opacity="0.7" transform="matrix(1 0 0 1.00191 0.436667 0)"/><text font-family="Arial,Arial_MSFontService,sans-serif" font-weight="400" font-size="10" transform="matrix(1.74667 0 0 1.75 25.3915 25)">May 19, 2020<tspan font-size="10" x="11.963" y="10.2857">1</tspan><tspan font-size="10" x="17.963" y="10.2857">:</tspan><tspan font-size="10" x="20.963" y="10.2857">45 </tspan>PM</text><path d="M201.74 44.0667C201.74 46.7391 199.394 48.9067 196.5 48.9067L167.388 48.9067C164.494 48.9067 162.148 46.7391 162.148 44.0667L162.148 11.245C162.148 8.57089 164.494 6.40328 167.388 6.40328L196.5 6.40328C199.394 6.40328 201.74 8.57089 201.74 11.245L201.74 44.0667Z" stroke="#000000" stroke-width="1.74667" stroke-miterlimit="10" fill="#FFFFFF" fill-opacity="0.7" transform="matrix(1 0 0 1.00191 0.436667 0)"/><text font-family="Arial,Arial_MSFontService,sans-serif" font-weight="400" font-size="14" transform="matrix(1.74667 0 0 1.75 175.212 35)">1</text><path d="M254.14 44.0667C254.14 46.7391 251.794 48.9067 248.9 48.9067L219.788 48.9067C216.894 48.9067 214.548 46.7391 214.548 44.0667L214.548 11.245C214.548 8.57089 216.894 6.40328 219.788 6.40328L248.9 6.40328C251.794 6.40328 254.14 8.57089 254.14 11.245L254.14 44.0667Z" stroke="#000000" stroke-width="1.74667" stroke-miterlimit="10" fill="#FFFFFF" fill-opacity="0.7" transform="matrix(1 0 0 1.00191 0.436667 0)"/><path d="M233.688 28.4986 228.876 29.0051 235.94 12.0363 234.577 24.4533 239.868 23.5503 232.218 40.7724 233.688 28.4986Z" transform="matrix(1 0 0 1.00191 0.436667 0)"/><path d="M516.723 44.0667C516.723 46.7391 514.378 48.9067 511.483 48.9067L270.443 48.9067C267.549 48.9067 265.203 46.7391 265.203 44.0667L265.203 11.245C265.203 8.57089 267.549 6.40328 270.443 6.40328L511.483 6.40328C514.378 6.40328 516.723 8.57089 516.723 11.245L516.723 44.0667Z" stroke="#000000" stroke-width="1.74667" stroke-miterlimit="10" fill="#FFFFFF" fill-opacity="0.7" transform="matrix(1 0 0 1.00191 0.436667 0)"/><text font-family="Arial,Arial_MSFontService,sans-serif" font-weight="400" font-size="11" transform="matrix(1.74667 0 0 1.75 305.667 30)">16<tspan font-size="11" x="12" y="0">.</tspan><tspan font-size="11" x="15" y="0">5</tspan><tspan font-size="11" x="21" y="0">dB</tspan><tspan font-size="11" x="61.5" y="0">0</tspan><tspan font-size="11" x="67.5" y="0">.</tspan><tspan font-size="11" x="70.5" y="0">57</tspan><tspan font-size="11" x="82.5" y="0">m</tspan></text><path d="M397.678 9.56475C394.403 9.56475 391.755 12.2127 391.755 15.4877 391.755 19.9295 397.678 26.4865 397.678 26.4865 397.678 26.4865 403.601 19.9295 403.601 15.4877 403.599 12.2127 400.951 9.56475 397.678 9.56475ZM397.678 17.6012C396.509 17.6012 395.562 16.6545 395.562 15.4859 395.562 14.3174 396.509 13.3707 397.678 13.3707 398.844 13.3707 399.793 14.3174 399.793 15.4859 399.793 16.6545 398.844 17.6012 397.678 17.6012Z" fill="#010101" transform="matrix(1 0 0 1.00191 0.436667 0)"/><path d="M382.193 9.56475C378.92 9.56475 376.27 12.2127 376.27 15.4877 376.27 19.9295 382.193 26.4865 382.193 26.4865 382.193 26.4865 388.116 19.9295 388.116 15.4877 388.115 12.2127 385.468 9.56475 382.193 9.56475ZM382.193 17.6012C381.027 17.6012 380.078 16.6545 380.078 15.4859 380.078 14.3174 381.027 13.3707 382.193 13.3707 383.362 13.3707 384.309 14.3174 384.309 15.4859 384.309 16.6545 383.36 17.6012 382.193 17.6012Z" fill="#010101" transform="matrix(1 0 0 1.00191 0.436667 0)"/><path d="M386.342 34.5683C386.342 36.8593 384.484 38.7166 382.193 38.7166 379.902 38.7166 378.045 36.8593 378.045 34.5683 378.045 32.2772 379.902 30.4199 382.193 30.4199 384.484 30.4199 386.342 32.2772 386.342 34.5683Z" stroke="#000000" stroke-width="1.74667" stroke-miterlimit="10" transform="matrix(1 0 0 1.00191 0.436667 0)"/><path d="M401.826 34.9333C401.826 37.2244 399.969 39.0817 397.678 39.0817 395.387 39.0817 393.529 37.2244 393.529 34.9333 393.529 32.6423 395.387 30.785 397.678 30.785 399.969 30.785 401.826 32.6423 401.826 34.9333Z" stroke="#000000" stroke-width="1.74667" stroke-miterlimit="10" fill="none" transform="matrix(1 0 0 1.00191 0.436667 0)"/><path d="M386.342 34.5683 393.529 34.5683" stroke="#000000" stroke-width="1.74667" stroke-miterlimit="10" fill="none" transform="matrix(1 0 0 1.00191 0.436667 0)"/><path d="M267.677 37.2809 303.047 37.2809" stroke="#000000" stroke-width="1.74667" stroke-miterlimit="10" fill="none" transform="matrix(1 0 0 1.00191 0.436667 0)"/><path d="M267.677 24.607 303.047 24.607" stroke="#000000" stroke-width="1.74667" stroke-miterlimit="10" fill="none" transform="matrix(1 0 0 1.00191 0.436667 0)"/><path d="M267.677 11.935 303.047 11.935" stroke="#000000" stroke-width="1.74667" stroke-miterlimit="10" fill="none" transform="matrix(1 0 0 1.00191 0.436667 0)"/><path d="M267.677 18.7767 271.607 14.651" stroke="#000000" stroke-width="1.74667" stroke-miterlimit="10" fill="none" transform="matrix(1 0 0 1.00191 0.436667 0)"/><path d="M271.607 14.651 275.537 21.3967" stroke="#000000" stroke-width="1.74667" stroke-miterlimit="10" fill="none" transform="matrix(1 0 0 1.00191 0.436667 0)"/><path d="M275.537 21.3967 279.903 34.9333" stroke="#000000" stroke-width="1.74667" stroke-miterlimit="10" fill="none" transform="matrix(1 0 0 1.00191 0.436667 0)"/><path d="M279.903 34.9333 289.51 26.4044" stroke="#000000" stroke-width="1.74667" stroke-miterlimit="10" fill="none" transform="matrix(1 0 0 1.00191 0.436667 0)"/><path d="M289.51 26.4044 296.06 14.651" stroke="#000000" stroke-width="1.74667" stroke-miterlimit="10" fill="none" transform="matrix(1 0 0 1.00191 0.436667 0)"/><path d="M296.06 14.651 299.553 16.7139" stroke="#000000" stroke-width="1.74667" stroke-miterlimit="10" fill="none" transform="matrix(1 0 0 1.00191 0.436667 0)"/><path d="M265.203 42.32 516.723 42.32" stroke="#000000" stroke-width="1.74667" stroke-miterlimit="10" fill="none" transform="matrix(1 0 0 1.00191 0.436667 0)"/><path d="M366.582 45.6317C366.582 46.1137 366.044 46.505 365.38 46.505L269.532 46.505C268.868 46.505 268.33 46.1137 268.33 45.6317L268.33 45.6317C268.33 45.1496 268.868 44.7583 269.532 44.7583L365.38 44.7583C366.044 44.7583 366.582 45.1496 366.582 45.6317L366.582 45.6317Z" stroke="#000000" stroke-width="1.74667" stroke-miterlimit="10" fill="#FFFFFF" transform="matrix(1 0 0 1.00191 0.436667 0)"/><text font-family="Arial,Arial_MSFontService,sans-serif" font-weight="400" font-size="9" transform="matrix(1.74667 0 0 1.75 486.447 23)"><tspan font-size="9" x="8.021" y="0"> </tspan><tspan font-size="9" x="0" y="5.71429"></tspan></text><path d="M226.27 18.2789 242.42 34.4285" stroke="#000000" stroke-width="1.74667" stroke-miterlimit="10" fill="none" transform="matrix(1 0 0 1.00191 0.436667 0)"/><path d="M223.573 17.1627 242.42 35.7298" stroke="#FFFFFF" stroke-width="1.31" stroke-miterlimit="10" fill="none" transform="matrix(1 0 0 1.00191 0.436667 0)"/></g></svg>