<svg width="132" height="48" xmlns="http://www.w3.org/2000/svg" xmlns:xlink="http://www.w3.org/1999/xlink" overflow="hidden"><defs><clipPath id="clip0"><rect x="429" y="323" width="132" height="48"/></clipPath></defs><g clip-path="url(#clip0)" transform="translate(-429 -323)"><path d="M126.809 38.0353C126.809 39.9649 124.817 41.5281 122.36 41.5281L9.64045 41.5281C7.18288 41.5281 5.19101 39.9634 5.19101 38.0353L5.19101 8.93002C5.19101 7.00045 7.18288 5.43721 9.64045 5.43721L122.36 5.43721C124.817 5.43721 126.809 7.00045 126.809 8.93002L126.809 38.0353Z" stroke="#000000" stroke-width="1.48315" stroke-miterlimit="10" fill="#FFFFFF" fill-opacity="0.7" transform="matrix(1 0 0 1.01136 429.371 323)"/><text font-family="Arial,Arial_MSFontService,sans-serif" font-weight="400" font-size="10" transform="matrix(1.48315 0 0 1.5 450.561 345)">May <tspan font-size="10" x="23" y="0">19</tspan><tspan font-size="10" x="35" y="0">, </tspan><tspan font-size="10" x="41" y="0">2020</tspan><tspan font-size="10" x="11.963" y="10">1</tspan><tspan font-size="10" x="17.963" y="10">:</tspan><tspan font-size="10" x="20.963" y="10">45 </tspan>PM</text></g></svg>