<svg width="37" height="39" xmlns="http://www.w3.org/2000/svg" xmlns:xlink="http://www.w3.org/1999/xlink" overflow="hidden"><defs><clipPath id="clip0"><rect x="106" y="619" width="37" height="39"/></clipPath></defs><g clip-path="url(#clip0)" transform="translate(-106 -619)"><path d="M99.917 31.5151C99.917 33.6021 98.0838 35.2949 95.8249 35.2949L73.0902 35.2949C70.8299 35.2949 68.998 33.6021 68.998 31.5151L68.998 5.88317C68.998 3.7948 70.8299 2.10201 73.0902 2.10201L95.8249 2.10201C98.0838 2.10201 99.917 3.7948 99.917 5.88317L99.917 31.5151Z" stroke="#000000" stroke-width="1.36406" stroke-miterlimit="10" fill="#FFFFFF" fill-opacity="0.7" transform="matrix(1 0 0 1.01641 106 619.003)"/><path d="M83.9453 19.3573 80.1874 19.7529 85.7036 6.50109 84.641 16.1968 88.7727 15.4916 82.7982 28.9412 83.9453 19.3573Z" transform="matrix(1 0 0 1.01641 106 619.003)"/><path d="M34.0264 32.1903C34.0264 34.2773 32.1931 35.9701 29.9342 35.9701L7.20085 35.9701C4.94061 35.9701 3.10868 34.2773 3.10868 32.1903L3.10868 6.55974C3.10868 4.47137 4.94061 2.77858 7.20085 2.77858L29.9356 2.77858C32.1944 2.77858 34.0277 4.47137 34.0277 6.55974L34.0277 32.1903Z" stroke="#000000" stroke-width="1.36406" stroke-miterlimit="10" fill="#FFFFFF" fill-opacity="0.7" transform="matrix(1 0 0 1.01641 106 619.003)"/><path d="" stroke="#000000" stroke-width="1.36406" stroke-miterlimit="10" fill="none" transform="matrix(1 0 0 1.01641 106 619.003)"/><path d="M19.9111 20.3626 23.6363 20.3626C23.6363 20.3626 26.9114 20.0489 27.3875 23.309 27.8363 26.3836 22.6488 27.423 21.6121 24.5489" stroke="#000000" stroke-width="2.04608" stroke-miterlimit="10" fill="none" transform="matrix(1 0 0 1.01641 106 619.003)"/><path d="M19.9111 13.6883C19.9111 10.2359 25.0059 10.2291 25.0059 14.0443 25.0059 16.9429 19.9111 16.7233 19.9111 16.7233L20.4185 16.7274 9.71889 16.7274" stroke="#000000" stroke-width="2.04608" stroke-miterlimit="10" fill="none" transform="matrix(1 0 0 1.01641 106 619.003)"/><path d="M9.71889 20.364 13.4441 20.364C13.4441 20.364 17.5922 20.2508 17.5922 23.5886 17.5922 26.9987 13.1072 26.921 12.7457 23.8314" stroke="#000000" stroke-width="2.04608" stroke-miterlimit="10" fill="none" transform="matrix(1 0 0 1.01641 106 619.003)"/></g></svg>